<svg width="68" height="68" viewBox="0 0 68 68" fill="none" xmlns="http://www.w3.org/2000/svg">
<g filter="url(#filter0_d_1_702)">
<rect x="6" y="3" width="56" height="56" rx="28" fill="#455EFF"/>
<path d="M33.3754 40.3337C33.1441 40.3337 32.9475 40.2637 32.7856 40.1239C32.6468 39.9608 32.5774 39.7627 32.5774 39.5297V32.2588H25.4646C25.2333 32.2588 25.0367 32.1888 24.8748 32.049C24.736 31.8859 24.6666 31.6878 24.6666 31.4548V30.3362C24.6666 30.1031 24.736 29.9167 24.8748 29.7769C25.0367 29.6137 25.2333 29.5322 25.4646 29.5322H32.5774V22.471C32.5774 22.2379 32.6468 22.0515 32.7856 21.9117C32.9475 21.7486 33.1441 21.667 33.3754 21.667H34.5898C34.8211 21.667 35.0062 21.7486 35.1449 21.9117C35.3069 22.0515 35.3878 22.2379 35.3878 22.471V29.5322H42.5353C42.7666 29.5322 42.9516 29.6137 43.0904 29.7769C43.2523 29.9167 43.3333 30.1031 43.3333 30.3362V31.4548C43.3333 31.6878 43.2523 31.8859 43.0904 32.049C42.9516 32.1888 42.7666 32.2588 42.5353 32.2588H35.3878V39.5297C35.3878 39.7627 35.3069 39.9608 35.1449 40.1239C35.0062 40.2637 34.8211 40.3337 34.5898 40.3337H33.3754Z" fill="white"/>
</g>
<defs>
<filter id="filter0_d_1_702" x="0" y="0" width="68" height="68" filterUnits="userSpaceOnUse" color-interpolation-filters="sRGB">
<feFlood flood-opacity="0" result="BackgroundImageFix"/>
<feColorMatrix in="SourceAlpha" type="matrix" values="0 0 0 0 0 0 0 0 0 0 0 0 0 0 0 0 0 0 127 0" result="hardAlpha"/>
<feOffset dy="3"/>
<feGaussianBlur stdDeviation="3"/>
<feComposite in2="hardAlpha" operator="out"/>
<feColorMatrix type="matrix" values="0 0 0 0 0 0 0 0 0 0 0 0 0 0 0 0 0 0 0.25 0"/>
<feBlend mode="normal" in2="BackgroundImageFix" result="effect1_dropShadow_1_702"/>
<feBlend mode="normal" in="SourceGraphic" in2="effect1_dropShadow_1_702" result="shape"/>
</filter>
</defs>
</svg>
